<?xml version="1.0" encoding="UTF-8"?>
<svg id="Capa_1" data-name="Capa 1" xmlns="http://www.w3.org/2000/svg" viewBox="0 0 210 32.54">
  <defs>
    <style>
      .cls-1 {
        stroke-width: 0px;
      }
    </style>
  </defs>
  <path class="cls-1" d="M0,31.96V2.29h4.14v29.67H0ZM2.2,22.88v-3.51h7.28c2.85,0,4.99-.55,6.43-1.64,1.44-1.09,2.16-2.85,2.16-5.28,0-2.25-.67-3.93-2-5.06-1.33-1.12-3.38-1.69-6.14-1.69H2.2v-3.42h7.82c1.95,0,3.68.22,5.19.67,1.51.45,2.79,1.11,3.84,1.98,1.05.87,1.85,1.94,2.41,3.21.55,1.27.83,2.75.83,4.43,0,2.22-.51,4.09-1.53,5.62-1.02,1.53-2.52,2.69-4.5,3.48-1.98.8-4.4,1.19-7.28,1.19H2.2Z"/>
  <path class="cls-1" d="M32.77,32.54c-1.26,0-2.4-.25-3.42-.74-1.02-.49-1.83-1.23-2.43-2.2-.6-.97-.9-2.21-.9-3.71,0-1.11.2-2.08.61-2.92.4-.84,1.03-1.56,1.89-2.16.85-.6,1.96-1.09,3.3-1.48,1.35-.39,3-.72,4.94-.99,1.11-.15,2.01-.3,2.72-.45.7-.15,1.22-.4,1.55-.74.33-.34.49-.86.49-1.55,0-1.14-.39-2.1-1.17-2.88s-2.01-1.17-3.69-1.17c-.87,0-1.75.15-2.65.45-.9.3-1.69.8-2.36,1.51-.67.7-1.1,1.69-1.28,2.94l-3.78-1.26c.24-1.08.64-2.05,1.19-2.92.55-.87,1.27-1.61,2.13-2.23.87-.61,1.88-1.09,3.03-1.42,1.15-.33,2.43-.49,3.84-.49,1.95,0,3.57.33,4.88.99,1.3.66,2.28,1.67,2.92,3.03.64,1.36.97,3.11.97,5.24v5.17c0,.93.02,1.94.07,3.03.04,1.1.11,2.19.2,3.28.09,1.09.18,2.12.27,3.08h-3.78c-.09-.96-.17-1.92-.25-2.88-.08-.96-.13-1.92-.16-2.88h-.58c-.45,1.11-1.05,2.14-1.8,3.1-.75.96-1.69,1.74-2.81,2.34-1.12.6-2.45.9-3.98.9ZM33.98,29.22c.66,0,1.33-.11,2-.31s1.35-.55,2.02-1.03c.67-.48,1.32-1.09,1.93-1.84.61-.75,1.16-1.65,1.64-2.7v-4.49l1.17.22c-.48.48-1.12.84-1.91,1.08-.79.24-1.67.44-2.63.58-.96.15-1.92.31-2.88.47-.96.17-1.84.41-2.63.72-.79.31-1.43.76-1.91,1.32-.48.57-.72,1.35-.72,2.34,0,1.2.36,2.11,1.08,2.72.72.61,1.66.92,2.83.92Z"/>
  <path class="cls-1" d="M59.92,32.54c-2.58,0-4.52-.9-5.84-2.7s-1.98-4.48-1.98-8.05v-13.08h4.14v12.72c0,2.52.39,4.39,1.17,5.62.78,1.23,2.01,1.84,3.69,1.84.93,0,1.76-.22,2.49-.68.73-.45,1.39-1.09,1.96-1.93.57-.84,1.03-1.84,1.39-2.99.36-1.15.6-2.41.72-3.75v-10.83h4.09v23.24h-3.64l.36-7.46h-.67c-.39,1.86-.94,3.38-1.64,4.56-.7,1.18-1.58,2.06-2.63,2.63-1.05.57-2.25.85-3.6.85Z"/>
  <path class="cls-1" d="M78.84,31.96V.5h4.09v31.46h-4.09Z"/>
  <path class="cls-1" d="M95.34,32.54c-1.26,0-2.4-.25-3.42-.74-1.02-.49-1.83-1.23-2.43-2.2-.6-.97-.9-2.21-.9-3.71,0-1.11.2-2.08.61-2.92.4-.84,1.03-1.56,1.89-2.16.85-.6,1.96-1.09,3.3-1.48,1.35-.39,3-.72,4.94-.99,1.11-.15,2.01-.3,2.72-.45.7-.15,1.22-.4,1.55-.74.33-.34.49-.86.49-1.55,0-1.14-.39-2.1-1.17-2.88s-2.01-1.17-3.69-1.17c-.87,0-1.75.15-2.65.45-.9.3-1.69.8-2.36,1.51-.67.7-1.1,1.69-1.28,2.94l-3.78-1.26c.24-1.08.64-2.05,1.19-2.92.55-.87,1.27-1.61,2.13-2.23.87-.61,1.88-1.09,3.03-1.42,1.15-.33,2.43-.49,3.84-.49,1.95,0,3.57.33,4.88.99,1.3.66,2.28,1.67,2.92,3.03.64,1.36.97,3.11.97,5.24v5.17c0,.93.02,1.94.07,3.03.04,1.1.11,2.19.2,3.28.09,1.09.18,2.12.27,3.08h-3.78c-.09-.96-.17-1.92-.25-2.88-.08-.96-.13-1.92-.16-2.88h-.58c-.45,1.11-1.05,2.14-1.8,3.1-.75.96-1.69,1.74-2.81,2.34-1.12.6-2.45.9-3.98.9ZM96.55,29.22c.66,0,1.33-.11,2-.31s1.35-.55,2.02-1.03c.67-.48,1.32-1.09,1.93-1.84.61-.75,1.16-1.65,1.64-2.7v-4.49l1.17.22c-.48.48-1.12.84-1.91,1.08-.79.24-1.67.44-2.63.58-.96.15-1.92.31-2.88.47-.96.17-1.84.41-2.63.72-.79.31-1.43.76-1.91,1.32-.48.57-.72,1.35-.72,2.34,0,1.2.36,2.11,1.08,2.72.72.61,1.66.92,2.83.92Z"/>
  <path class="cls-1" d="M126.71,31.96V2.29h10.34c1.5,0,2.87.12,4.11.36,1.24.24,2.35.6,3.33,1.08.97.48,1.8,1.06,2.47,1.75.68.69,1.18,1.49,1.53,2.41s.52,1.93.52,3.03c0,1.05-.16,2.01-.47,2.88-.31.87-.79,1.63-1.42,2.29-.63.66-1.41,1.19-2.34,1.6-.93.4-2.01.68-3.24.83v.58c1.08.12,2.02.4,2.83.85.81.45,1.5,1.1,2.07,1.96.57.85,1.06,1.98,1.48,3.39l1.89,6.65h-4.45l-1.53-6.07c-.27-1.23-.73-2.22-1.37-2.97s-1.45-1.3-2.4-1.66c-.96-.36-2.08-.54-3.37-.54h-5.84v11.24h-4.14ZM130.84,17.35h5.84c2.67,0,4.68-.48,6.05-1.44,1.36-.96,2.05-2.43,2.05-4.4s-.65-3.44-1.96-4.38c-1.3-.94-3.32-1.42-6.05-1.42h-5.93v11.64Z"/>
  <path class="cls-1" d="M163.07,32.54c-2.58,0-4.53-.9-5.84-2.7s-1.98-4.48-1.98-8.05v-13.08h4.14v12.72c0,2.52.39,4.39,1.17,5.62s2.01,1.84,3.69,1.84c.93,0,1.76-.22,2.5-.68.73-.45,1.38-1.09,1.95-1.93s1.03-1.84,1.39-2.99c.36-1.15.6-2.41.72-3.75v-10.83h4.09v23.24h-3.64l.36-7.46h-.67c-.39,1.86-.94,3.38-1.64,4.56-.71,1.18-1.58,2.06-2.63,2.63-1.05.57-2.25.85-3.6.85Z"/>
  <path class="cls-1" d="M184.11,4.68c-.96,0-1.68-.2-2.16-.58-.48-.39-.72-.97-.72-1.75s.24-1.36.72-1.75c.48-.39,1.18-.58,2.11-.58s1.68.2,2.16.58c.48.39.72.97.72,1.75s-.24,1.33-.72,1.73-1.18.61-2.11.61ZM182.04,31.96V8.72h4.09v23.24h-4.09Z"/>
  <path class="cls-1" d="M191.3,31.96v-3.73l13.17-15.46v-.58h-13.08v-3.46h18.52v3.51l-13.44,15.64v.58h13.53v3.51h-18.7Z"/>
</svg>